REM DIRINDEX 1\8,1\2\11,1\3\12,1\3\14,1\5\15,1\5\16,1\6\17,1\6\18,1\4\19,1\4\20,1\4\21,1\4\22,1\7\23,1\7\24,1\7\25,1\2\9\26,1\2\9\27,1\2\10\28,1\2\10\29,1\2\10\30,1\2\10\31,1\2\10\32,1\3\13\33,1\3\13\34,1\3\13\35
REM DIRNAME cjc123,folder01,folder02,folder03,folder04,folder05,folder06,folder07,folder08,folder09,folder10,folder11,folder12,folder13,folder14,folder15,folder16,folder17,folder18,folder19,folder20,folder21,folder22,folder23,folder24,folder25,folder26,folder27,folder28,folder29,folder30,folder31,folder32,folder33,folder34
TITLE ""
FILE "66 066_UNIT7_WARM-UP-40.mp3" MP3
  TRACK 01 AUDIO
    TITLE "11:cjc123_6565"
    INDEX 01 00:00:00
  TRACK 02 AUDIO
    TITLE "0:"
    INDEX 01 00:02:63
  TRACK 03 AUDIO
    TITLE "26:cjc123_6566"
    INDEX 01 00:03:41
  TRACK 04 AUDIO
    TITLE "0:"
    INDEX 01 00:04:50
  TRACK 05 AUDIO
    TITLE "27:cjc123_6567"
    INDEX 01 00:04:70
  TRACK 06 AUDIO
    TITLE "0:"
    INDEX 01 00:06:24
  TRACK 07 AUDIO
    TITLE "26:cjc123_6568"
    INDEX 01 00:06:65
  TRACK 08 AUDIO
    TITLE "0:"
    INDEX 01 00:07:56
  TRACK 09 AUDIO
    TITLE "27:cjc123_6569"
    INDEX 01 00:08:03
  TRACK 10 AUDIO
    TITLE "0:"
    INDEX 01 00:09:47
  TRACK 11 AUDIO
    TITLE "26:cjc123_6570"
    INDEX 01 00:10:19
  TRACK 12 AUDIO
    TITLE "0:"
    INDEX 01 00:11:27
  TRACK 13 AUDIO
    TITLE "27:cjc123_6571"
    INDEX 01 00:11:54
  TRACK 14 AUDIO
    TITLE "0:"
    INDEX 01 00:13:06
  TRACK 15 AUDIO
    TITLE "26:cjc123_6572"
    INDEX 01 00:13:49
  TRACK 16 AUDIO
    TITLE "0:"
    INDEX 01 00:14:56
  TRACK 17 AUDIO
    TITLE "27:cjc123_6573"
    INDEX 01 00:15:07
  TRACK 18 AUDIO
    TITLE "0:"
    INDEX 01 00:16:18
  TRACK 19 AUDIO
    TITLE "26:cjc123_6574"
    INDEX 01 00:16:63
  TRACK 20 AUDIO
    TITLE "0:"
    INDEX 01 00:18:03
  TRACK 21 AUDIO
    TITLE "27:cjc123_6575"
    INDEX 01 00:18:15
  TRACK 22 AUDIO
    TITLE "0:"
    INDEX 01 00:19:24
  TRACK 23 AUDIO
    TITLE "26:cjc123_6576"
    INDEX 01 00:19:69
  TRACK 24 AUDIO
    TITLE "0:"
    INDEX 01 00:21:21
  TRACK 25 AUDIO
    TITLE "27:cjc123_6577"
    INDEX 01 00:21:35
  TRACK 26 AUDIO
    TITLE "0:"
    INDEX 01 00:22:72
  TRACK 27 AUDIO
    TITLE "26:cjc123_6578"
    INDEX 01 00:23:38
  TRACK 28 AUDIO
    TITLE "0:"
    INDEX 01 00:24:63
  TRACK 29 AUDIO
    TITLE "27:cjc123_6579"
    INDEX 01 00:25:07
  TRACK 30 AUDIO
    TITLE "0:"
    INDEX 01 00:26:48
  TRACK 31 AUDIO
    TITLE "26:cjc123_6580"
    INDEX 01 00:27:24
  TRACK 32 AUDIO
    TITLE "0:"
    INDEX 01 00:28:27
  TRACK 33 AUDIO
    TITLE "27:cjc123_6581"
    INDEX 01 00:28:43
  TRACK 34 AUDIO
    TITLE "0:"
    INDEX 01 00:30:24
  TRACK 35 AUDIO
    TITLE "26:cjc123_6582"
    INDEX 01 00:30:69
  TRACK 36 AUDIO
    TITLE "0:"
    INDEX 01 00:32:39
  TRACK 37 AUDIO
    TITLE "27:cjc123_6583"
    INDEX 01 00:32:62
  TRACK 38 AUDIO
    TITLE "0:"
    INDEX 01 00:34:69
  TRACK 39 AUDIO
    TITLE "26:cjc123_6584"
    INDEX 01 00:35:41
  TRACK 40 AUDIO
    TITLE "0:"
    INDEX 01 00:36:48
  TRACK 41 AUDIO
    TITLE "27:cjc123_6585"
    INDEX 01 00:36:70
  TRACK 42 AUDIO
    TITLE "0:"
    INDEX 01 00:38:35
  TRACK 43 AUDIO
    TITLE "26:cjc123_6586"
    INDEX 01 00:39:02
  TRACK 44 AUDIO
    TITLE "0:"
    INDEX 01 00:40:15
  TRACK 45 AUDIO
    TITLE "27:cjc123_6587"
    INDEX 01 00:40:30
  TRACK 46 AUDIO
    TITLE "0:"
    INDEX 01 00:41:59
  TRACK 47 AUDIO
    TITLE "26:cjc123_6588"
    INDEX 01 00:42:27
  TRACK 48 AUDIO
    TITLE "0:"
    INDEX 01 00:43:33
  TRACK 49 AUDIO
    TITLE "27:cjc123_6589"
    INDEX 01 00:43:50
  TRACK 50 AUDIO
    TITLE "0:"
    INDEX 01 00:45:18
  TRACK 51 AUDIO
    TITLE "26:cjc123_6590"
    INDEX 01 00:45:59
  TRACK 52 AUDIO
    TITLE "0:"
    INDEX 01 00:47:21
  TRACK 53 AUDIO
    TITLE "27:cjc123_6591"
    INDEX 01 00:47:48
  TRACK 54 AUDIO
    TITLE "0:"
    INDEX 01 00:49:29
  TRACK 55 AUDIO
    TITLE "26:cjc123_6592"
    INDEX 01 00:49:74
  TRACK 56 AUDIO
    TITLE "0:"
    INDEX 01 00:50:74
  TRACK 57 AUDIO
    TITLE "27:cjc123_6593"
    INDEX 01 00:51:18
  TRACK 58 AUDIO
    TITLE "0:"
    INDEX 01 00:52:43
  TRACK 59 AUDIO
    TITLE "26:cjc123_6594"
    INDEX 01 00:53:11
  TRACK 60 AUDIO
    TITLE "0:"
    INDEX 01 00:54:15
  TRACK 61 AUDIO
    TITLE "27:cjc123_6595"
    INDEX 01 00:54:30
  TRACK 62 AUDIO
    TITLE "0:"
    INDEX 01 00:55:51
  TRACK 63 AUDIO
    TITLE "26:cjc123_6596"
    INDEX 01 00:56:16
  TRACK 64 AUDIO
    TITLE "0:"
    INDEX 01 00:57:35
  TRACK 65 AUDIO
    TITLE "27:cjc123_6597"
    INDEX 01 00:57:52
  TRACK 66 AUDIO
    TITLE "0:"
    INDEX 01 00:58:54
  TRACK 67 AUDIO
    TITLE "26:cjc123_6598"
    INDEX 01 00:59:34
  TRACK 68 AUDIO
    TITLE "0:"
    INDEX 01 01:00:21
  TRACK 69 AUDIO
    TITLE "27:cjc123_6599"
    INDEX 01 01:00:53
  TRACK 70 AUDIO
    TITLE "0:"
    INDEX 01 01:01:74
  TRACK 71 AUDIO
    TITLE "26:cjc123_6600"
    INDEX 01 01:02:46
  TRACK 72 AUDIO
    TITLE "0:"
    INDEX 01 01:03:47
  TRACK 73 AUDIO
    TITLE "27:cjc123_6601"
    INDEX 01 01:03:69
  TRACK 74 AUDIO
    TITLE "0:"
    INDEX 01 01:05:09
  TRACK 75 AUDIO
    TITLE "26:cjc123_6602"
    INDEX 01 01:05:58
  TRACK 76 AUDIO
    TITLE "0:"
    INDEX 01 01:07:15
  TRACK 77 AUDIO
    TITLE "27:cjc123_6603"
    INDEX 01 01:07:39
  TRACK 78 AUDIO
    TITLE "0:"
    INDEX 01 01:08:68
  TRACK 79 AUDIO
    TITLE "26:cjc123_6604"
    INDEX 01 01:09:34
  TRACK 80 AUDIO
    TITLE "0:"
    INDEX 01 01:10:45
  TRACK 81 AUDIO
    TITLE "27:cjc123_6605"
    INDEX 01 01:11:02
  TRACK 82 AUDIO
    TITLE "0:"
    INDEX 01 01:12:15
  TRACK 83 AUDIO
    TITLE "26:cjc123_6606"
    INDEX 01 01:12:64
  TRACK 84 AUDIO
    TITLE "0:"
    INDEX 01 01:14:19
  TRACK 85 AUDIO
    TITLE "27:cjc123_6607"
    INDEX 01 01:14:33
  TRACK 86 AUDIO
    TITLE "0:"
    INDEX 01 01:15:54
  TRACK 87 AUDIO
    TITLE "26:cjc123_6608"
    INDEX 01 01:16:26
  TRACK 88 AUDIO
    TITLE "0:"
    INDEX 01 01:17:24
  TRACK 89 AUDIO
    TITLE "27:cjc123_6609"
    INDEX 01 01:17:45
  TRACK 90 AUDIO
    TITLE "0:"
    INDEX 01 01:18:66
  TRACK 91 AUDIO
    TITLE "26:cjc123_6610"
    INDEX 01 01:19:38
  TRACK 92 AUDIO
    TITLE "0:"
    INDEX 01 01:20:30
  TRACK 93 AUDIO
    TITLE "27:cjc123_6611"
    INDEX 01 01:20:69
  TRACK 94 AUDIO
    TITLE "0:"
    INDEX 01 01:21:63
  TRACK 95 AUDIO
    TITLE "26:cjc123_6612"
    INDEX 01 01:22:29
  TRACK 96 AUDIO
    TITLE "0:"
    INDEX 01 01:23:44
  TRACK 97 AUDIO
    TITLE "27:cjc123_6613"
    INDEX 01 01:23:69
  TRACK 98 AUDIO
    TITLE "0:"
    INDEX 01 01:25:21
  TRACK 99 AUDIO
    TITLE "26:cjc123_6614"
    INDEX 01 01:25:64
  TRACK 100 AUDIO
    TITLE "0:"
    INDEX 01 01:27:01
  TRACK 101 AUDIO
    TITLE "27:cjc123_6615"
    INDEX 01 01:27:22
  TRACK 102 AUDIO
    TITLE "0:"
    INDEX 01 01:28:47
  TRACK 103 AUDIO
    TITLE "26:cjc123_6616"
    INDEX 01 01:29:17
  TRACK 104 AUDIO
    TITLE "0:"
    INDEX 01 01:30:17
  TRACK 105 AUDIO
    TITLE "27:cjc123_6617"
    INDEX 01 01:30:40
  TRACK 106 AUDIO
    TITLE "0:"
    INDEX 01 01:31:26
  TRACK 107 AUDIO
    TITLE "26:cjc123_6618"
    INDEX 01 01:31:71
  TRACK 108 AUDIO
    TITLE "0:"
    INDEX 01 01:33:40
  TRACK 109 AUDIO
    TITLE "27:cjc123_6619"
    INDEX 01 01:33:64
  TRACK 110 AUDIO
    TITLE "0:"
    INDEX 01 01:34:61
  TRACK 111 AUDIO
    TITLE "26:cjc123_6620"
    INDEX 01 01:35:35
  TRACK 112 AUDIO
    TITLE "0:"
    INDEX 01 01:36:39
  TRACK 113 AUDIO
    TITLE "27:cjc123_6621"
    INDEX 01 01:36:58
  TRACK 114 AUDIO
    TITLE "0:"
    INDEX 01 01:37:48
  TRACK 115 AUDIO
    TITLE "26:cjc123_6622"
    INDEX 01 01:38:20
  TRACK 116 AUDIO
    TITLE "0:"
    INDEX 01 01:39:27
  TRACK 117 AUDIO
    TITLE "27:cjc123_6623"
    INDEX 01 01:39:43
  TRACK 118 AUDIO
    TITLE "0:"
    INDEX 01 01:40:48
  TRACK 119 AUDIO
    TITLE "26:cjc123_6624"
    INDEX 01 01:41:26
  TRACK 120 AUDIO
    TITLE "0:"
    INDEX 01 01:42:33
  TRACK 121 AUDIO
    TITLE "27:cjc123_6625"
    INDEX 01 01:42:59
  TRACK 122 AUDIO
    TITLE "0:"
    INDEX 01 01:44:34
  TRACK 123 AUDIO
    TITLE "26:cjc123_6626"
    INDEX 01 01:45:08
  TRACK 124 AUDIO
    TITLE "0:"
    INDEX 01 01:46:18
  TRACK 125 AUDIO
    TITLE "27:cjc123_6627"
    INDEX 01 01:46:39
  TRACK 126 AUDIO
    TITLE "0:"
    INDEX 01 01:47:74
  TRACK 127 AUDIO
    TITLE "26:cjc123_6628"
    INDEX 01 01:48:46
  TRACK 128 AUDIO
    TITLE "0:"
    INDEX 01 01:49:53
  TRACK 129 AUDIO
    TITLE "27:cjc123_6629"
    INDEX 01 01:50:00
  TRACK 130 AUDIO
    TITLE "0:"
    INDEX 01 01:51:09
  TRACK 131 AUDIO
    TITLE "26:cjc123_6630"
    INDEX 01 01:51:58
  TRACK 132 AUDIO
    TITLE "0:"
    INDEX 01 01:53:06
  TRACK 133 AUDIO
    TITLE "27:cjc123_6631"
    INDEX 01 01:53:27
  TRACK 134 AUDIO
    TITLE "0:"
    INDEX 01 01:54:44
  TRACK 135 AUDIO
    TITLE "26:cjc123_6632"
    INDEX 01 01:55:11
  TRACK 136 AUDIO
    TITLE "0:"
    INDEX 01 01:56:24
  TRACK 137 AUDIO
    TITLE "27:cjc123_6633"
    INDEX 01 01:56:41
  TRACK 138 AUDIO
    TITLE "0:"
    INDEX 01 01:57:39
  TRACK 139 AUDIO
    TITLE "26:cjc123_6634"
    INDEX 01 01:58:11
  TRACK 140 AUDIO
    TITLE "0:"
    INDEX 01 01:59:38
  TRACK 141 AUDIO
    TITLE "27:cjc123_6635"
    INDEX 01 01:59:57
  TRACK 142 AUDIO
    TITLE "0:"
    INDEX 01 02:01:29
  TRACK 143 AUDIO
    TITLE "26:cjc123_6636"
    INDEX 01 02:01:74
  TRACK 144 AUDIO
    TITLE "0:"
    INDEX 01 02:03:18
  TRACK 145 AUDIO
    TITLE "27:cjc123_6637"
    INDEX 01 02:03:38
  TRACK 146 AUDIO
    TITLE "0:"
    INDEX 01 02:04:62
  TRACK 147 AUDIO
    TITLE "26:cjc123_6638"
    INDEX 01 02:05:33
  TRACK 148 AUDIO
    TITLE "0:"
    INDEX 01 02:06:48
  TRACK 149 AUDIO
    TITLE "27:cjc123_6639"
    INDEX 01 02:06:65
  TRACK 150 AUDIO
    TITLE "0:"
    INDEX 01 02:08:05
  TRACK 151 AUDIO
    TITLE "26:cjc123_6640"
    INDEX 01 02:08:50
  TRACK 152 AUDIO
    TITLE "0:"
    INDEX 01 02:10:06
  TRACK 153 AUDIO
    TITLE "27:cjc123_6641"
    INDEX 01 02:10:32
  TRACK 154 AUDIO
    TITLE "0:"
    INDEX 01 02:12:15
  TRACK 155 AUDIO
    TITLE "26:cjc123_6642"
    INDEX 01 02:12:66
  TRACK 156 AUDIO
    TITLE "0:"
    INDEX 01 02:13:57
  TRACK 157 AUDIO
    TITLE "27:cjc123_6643"
    INDEX 01 02:14:00
  TRACK 158 AUDIO
    TITLE "0:"
    INDEX 01 02:15:17
  TRACK 159 AUDIO
    TITLE "26:cjc123_6644"
    INDEX 01 02:15:62
  TRACK 160 AUDIO
    TITLE "0:"
    INDEX 01 02:17:18
  TRACK 161 AUDIO
    TITLE "27:cjc123_6645"
    INDEX 01 02:17:38
  TRACK 162 AUDIO
    TITLE "0:"
    INDEX 01 02:18:57
